HIERARCHY
ROOT Hips
{
  OFFSET 54.4867 91.6782 5.56077
  CHANNELS 6 Xposition Yposition Zposition Zrotation Xrotation Yrotation
  JOINT spine
  {
    OFFSET 0 6.84637 0.3937
    CHANNELS 3 Zrotation Xrotation Yrotation
    JOINT spine1
    {
      OFFSET 0 9.49621 0
      CHANNELS 3 Zrotation Xrotation Yrotation
      JOINT spine2
      {
        OFFSET 0 9.09909 0
        CHANNELS 3 Zrotation Xrotation Yrotation
        JOINT Neck
        {
          OFFSET 0 23.3612 1.11378
          CHANNELS 3 Zrotation Xrotation Yrotation
          JOINT Head
          {
            OFFSET 0 7.05802 0
            CHANNELS 3 Zrotation Xrotation Yrotation
            End Site
            {
              OFFSET 0 17.0844 -5.63419
            }
          }
        }
        JOINT RightShoulder
        {
          OFFSET -3.83136 9.82631 -0.533491
          CHANNELS 3 Zrotation Xrotation Yrotation
          JOINT RightArm
          {
            OFFSET 0 12.8881 0
            CHANNELS 3 Zrotation Xrotation Yrotation
            JOINT RightArmRoll
            {
              OFFSET 0 6.50617 0
              CHANNELS 3 Zrotation Xrotation Yrotation
              JOINT RightForeArm
              {
                OFFSET 0 18.9501 0
                CHANNELS 3 Zrotation Xrotation Yrotation
                JOINT RightForeArmRoll
                {
                  OFFSET 0 7.30092 0
                  CHANNELS 3 Zrotation Xrotation Yrotation
                  JOINT RightHand
                  {
                    OFFSET 0 14.6514 0
                    CHANNELS 3 Zrotation Xrotation Yrotation
                    End Site
                    {
                      OFFSET 0 0 0
                    }
                  }
                }
              }
            }
          }
        }
        JOINT LeftShoulder
        {
          OFFSET 3.83136 9.82631 -0.533491
          CHANNELS 3 Zrotation Xrotation Yrotation
          JOINT LeftArm
          {
            OFFSET 0 12.8881 0
            CHANNELS 3 Zrotation Xrotation Yrotation
            JOINT LeftArmRoll
            {
              OFFSET 0 6.50617 0
              CHANNELS 3 Zrotation Xrotation Yrotation
              JOINT LeftForeArm
              {
                OFFSET 0 18.9501 0
                CHANNELS 3 Zrotation Xrotation Yrotation
                JOINT LeftForeArmRoll
                {
                  OFFSET 0 7.30092 0
                  CHANNELS 3 Zrotation Xrotation Yrotation
                  JOINT LeftHand
                  {
                    OFFSET 0 14.6514 0
                    CHANNELS 3 Zrotation Xrotation Yrotation
                    End Site
                    {
                      OFFSET 0 0 0
                    }
                  }
                }
              }
            }
          }
        }
      }
    }
  }
  JOINT RightUpLeg
  {
    OFFSET -6.06837 -1.11278 -0.933477
    CHANNELS 3 Zrotation Xrotation Yrotation
    JOINT RightUpLegRoll
    {
      OFFSET 0 17.1796 0
      CHANNELS 3 Zrotation Xrotation Yrotation
      JOINT RightLeg
      {
        OFFSET 0 -21.2743 0
        CHANNELS 3 Zrotation Xrotation Yrotation
        JOINT RightLegRoll
        {
          OFFSET 0 21.3439 0
          CHANNELS 3 Zrotation Xrotation Yrotation
          JOINT RightFoot
          {
            OFFSET 0 17.7652 0
            CHANNELS 3 Zrotation Xrotation Yrotation
            JOINT RightToeBase
            {
              OFFSET 0 14.8508 0
              CHANNELS 3 Zrotation Xrotation Yrotation
              End Site
              {
                OFFSET 0.0062947 7.19213 -0.829004
              }
            }
          }
        }
      }
    }
  }
  JOINT LeftUpLeg
  {
    OFFSET 6.06837 -1.11278 -0.933477
    CHANNELS 3 Zrotation Xrotation Yrotation
    JOINT LeftUpLegRoll
    {
      OFFSET 0 17.1797 0
      CHANNELS 3 Zrotation Xrotation Yrotation
      JOINT LeftLeg
      {
        OFFSET 0 21.2742 0
        CHANNELS 3 Zrotation Xrotation Yrotation
        JOINT LeftLegRoll
        {
          OFFSET 0 21.5412 0
          CHANNELS 3 Zrotation Xrotation Yrotation
          JOINT LeftFoot
          {
            OFFSET 0 17.5679 0
            CHANNELS 3 Zrotation Xrotation Yrotation
            JOINT LeftToeBase
            {
              OFFSET 0 14.8508 0
              CHANNELS 3 Zrotation Xrotation Yrotation
              End Site
              {
                OFFSET -0.0282102 7.19214 -0.829004
              }
            }
          }
        }
      }
    }
  }
}
MOTION
Frames: 12
Frame Time: 0.00208333
53.7944 91.4414 6.92861 -2.40049 6.06483 -2.74886 -0.855718 -4.64999 0.0322456 -1.70358 -5.2979 0.117242 -1.70293 -3.65325 0.145702 30.1434 22.3823 -11.2296 -19.0137 4.99368 -0.519833 26.8968 -23.5391 -21.6302 -45.6941 41.2016 137.87 -3.01082e-006 2.91496e-007 -4.04966e-006 -11.4772 14.1826 1.37046 2.72873e-006 9.25243e-007 -2.99999 8.02903 -4.95142 0.697661 11.5582 -22.0619 34.8672 49.8967 44.7073 -157.551 -8.94873e-008 2.60917e-008 3.65544e-006 21.0112 10.7388 -6.52689 4.99151e-006 1.48611e-006 3.00762 -8.02888 -4.95144 -0.697682 178.839 7.72756 -1.77077 180 7.01587e-015 179.115 178.769 4.57365 179.922 -7.89379e-007 1.71256e-006 0.032 -18.6136 67.9382 19.4947 8.13649 25.2327 -3.48774 -171.488 6.28814 -1.94449 4.54188e-006 -4.6773e-006 -0.926497 -1.99212 -5.63986 0.0330082 1.49799e-006 -6.72004e-007 -0.08459 19.2081 68.7696 -20.1873 -8.13649 25.2327 3.48774 
53.7877 91.4425 6.94394 -2.41269 6.02882 -2.72022 -0.8544 -4.64525 0.0312181 -1.70076 -5.28855 0.116032 -1.7001 -3.64391 0.144445 30.0135 22.3714 -11.1804 -18.8793 5.04832 -0.509001 26.8803 -23.5444 -21.6408 -45.6948 41.2361 137.917 -3.01082e-006 2.91496e-007 -4.04966e-006 -11.4836 14.1824 1.37218 2.72873e-006 9.25243e-007 -2.99999 8.02903 -4.95142 0.697661 11.5135 -22.0517 34.8131 49.9466 44.7261 -157.545 -8.94873e-008 2.60917e-008 3.65544e-006 20.979 10.7107 -6.50495 4.99151e-006 1.48611e-006 3.00763 -8.02888 -4.95144 -0.697682 178.851 7.68823 -1.7719 180 7.01587e-015 179.114 178.767 4.58258 179.922 -7.89379e-007 1.71256e-006 0.0319945 -18.6109 67.9351 19.4918 8.13649 25.2327 -3.48774 -171.478 6.26049 -1.94968 4.54188e-006 -4.6773e-006 -0.927032 -1.98788 -5.6522 0.0332005 1.49799e-006 -6.72004e-007 -0.084801 19.2099 68.7717 -20.1893 -8.13649 25.2327 3.48774 
53.7807 91.4437 6.95019 -2.42491 5.99333 -2.69234 -0.852941 -4.64056 0.0303243 -1.6977 -5.27938 0.114937 -1.69704 -3.63473 0.1433 29.901 22.3637 -11.1396 -18.7677 5.09402 -0.501375 26.8654 -23.5489 -21.6499 -45.6885 41.2725 137.954 -3.01082e-006 2.91496e-007 -4.04966e-006 -11.4883 14.1821 1.37348 2.72873e-006 9.25243e-007 -2.99999 8.02903 -4.95142 0.697661 11.4683 -22.0409 34.7574 49.99 44.7517 -157.535 -8.94873e-008 2.60917e-008 3.65544e-006 20.9443 10.6811 -6.48215 4.99151e-006 1.48611e-006 3.00763 -8.02888 -4.95144 -0.697682 178.863 7.64976 -1.77332 180 7.01587e-015 179.113 178.765 4.5915 179.923 -7.89379e-007 1.71256e-006 0.031989 -18.6083 67.932 19.489 8.13649 25.2327 -3.48774 -171.466 6.23448 -1.95556 4.54188e-006 -4.6773e-006 -0.927541 -1.98424 -5.66647 0.0334303 1.49799e-006 -6.72004e-007 -0.085074 19.2124 68.7746 -20.1919 -8.13649 25.2327 3.48774 
53.7772 91.4434 6.95584 -2.43707 5.95847 -2.66525 -0.851347 -4.63594 0.0295761 -1.69443 -5.27045 0.113953 -1.69377 -3.6258 0.142262 29.8092 22.3597 -11.1085 -18.6827 5.12955 -0.497371 26.8521 -23.5526 -21.6578 -45.6752 41.3107 137.981 -3.01082e-006 2.91496e-007 -4.04966e-006 -11.4912 14.182 1.37437 2.72873e-006 9.25243e-007 -2.99999 8.02903 -4.95142 0.697661 11.4227 -22.0295 34.7001 50.0273 44.784 -157.519 -8.94873e-008 2.60917e-008 3.65544e-006 20.9074 10.6496 -6.45846 4.99151e-006 1.48611e-006 3.00763 -8.02888 -4.95144 -0.697682 178.875 7.61226 -1.77502 180 7.01587e-015 179.113 178.764 4.60031 179.923 -7.89379e-007 1.71256e-006 0.0319835 -18.6056 67.9289 19.4862 8.13649 25.2327 -3.48774 -171.454 6.21031 -1.96217 4.54188e-006 -4.6773e-006 -0.928018 -1.98131 -5.6828 0.0337028 1.49799e-006 -6.72004e-007 -0.085415 19.2155 68.7782 -20.1953 -8.13649 25.2327 3.48774 
53.7717 91.4409 6.9654 -2.44958 5.92389 -2.63867 -0.849532 -4.63127 0.0290091 -1.69077 -5.2615 0.113184 -1.6901 -3.61685 0.141433 29.737 22.3587 -11.0869 -18.6236 5.15529 -0.497379 26.8412 -23.5558 -21.6644 -45.6549 41.3511 138.001 -3.01082e-006 2.91496e-007 -4.04966e-006 -11.4928 14.1831 1.37509 2.72873e-006 9.25243e-007 -2.99999 8.02903 -4.95142 0.697661 11.3759 -22.0175 34.6406 50.0569 44.8238 -157.497 -8.94873e-008 2.60917e-008 3.65544e-006 20.8674 10.6172 -6.43389 4.99151e-006 1.48611e-006 3.00764 -8.02888 -4.95144 -0.697682 178.888 7.57561 -1.77715 180 7.01587e-015 179.112 178.762 4.60939 179.922 -7.89379e-007 1.71256e-006 0.031978 -18.603 67.9258 19.4834 8.13649 25.2327 -3.48774 -171.442 6.18821 -1.96987 4.54188e-006 -4.6773e-006 -0.928465 -1.97914 -5.70204 0.0340146 1.49799e-006 -6.72004e-007 -0.0858443 19.2195 68.7828 -20.1996 -8.13649 25.2327 3.48774 
53.7626 91.4421 6.96747 -2.46279 5.88915 -2.61235 -0.847424 -4.62641 0.0286351 -1.68655 -5.25223 0.112713 -1.68588 -3.60758 0.140891 29.6805 22.3594 -11.0734 -18.5858 5.17295 -0.501203 26.8335 -23.5585 -21.6695 -45.6274 41.394 138.015 -3.01082e-006 2.91496e-007 -4.04966e-006 -11.4939 14.1858 1.37584 2.72873e-006 9.25243e-007 -2.99999 8.02903 -4.95142 0.697661 11.3267 -22.0046 34.5777 50.0773 44.8719 -157.467 -8.94873e-008 2.60917e-008 3.65544e-006 20.8237 10.5846 -6.40845 4.99151e-006 1.48611e-006 3.00764 -8.02888 -4.95144 -0.697682 178.901 7.53963 -1.7798 180 7.01586e-015 179.111 178.761 4.61909 179.922 -7.89379e-007 1.71256e-006 0.0319725 -18.6002 67.9226 19.4804 8.13649 25.2327 -3.48774 -171.428 6.16808 -1.97887 4.54188e-006 -4.6773e-006 -0.928887 -1.97769 -5.72467 0.0343577 1.49799e-006 -6.72004e-007 -0.0863695 19.2243 68.7883 -20.2048 -8.13649 25.2327 3.48774 
53.7599 91.4454 6.97739 -2.47659 5.85431 -2.58635 -0.845053 -4.62139 0.0284312 -1.68183 -5.24271 0.112501 -1.68117 -3.59805 0.1406 29.6376 22.3617 -11.0667 -18.5667 5.18329 -0.508384 26.8288 -23.5605 -21.6732 -45.5925 41.4395 138.023 -3.01082e-006 2.91496e-007 -4.04966e-006 -11.4945 14.1892 1.37652 2.72873e-006 9.25243e-007 -2.99999 8.02903 -4.95142 0.697661 11.2755 -21.9909 34.5116 50.089 44.9278 -157.429 -8.94873e-008 2.60917e-008 3.65544e-006 20.7766 10.5517 -6.38216 4.99151e-006 1.48611e-006 3.00765 -8.02888 -4.95144 -0.697682 178.916 7.50428 -1.7829 180 7.01586e-015 179.11 178.76 4.62931 179.922 -7.89379e-007 1.71256e-006 0.0319671 -18.5973 67.9191 19.4773 8.13649 25.2327 -3.48774 -171.413 6.14969 -1.98898 4.54188e-006 -4.6773e-006 -0.929288 -1.97688 -5.75026 0.0347298 1.49799e-006 -6.72004e-007 -0.0869783 19.2299 68.7946 -20.2108 -8.13649 25.2327 3.48774 
53.7517 91.4459 6.98655 -2.4909 5.81943 -2.56077 -0.842448 -4.61624 0.0283743 -1.67666 -5.23298 0.112509 -1.67602 -3.58832 0.140522 29.6065 22.3654 -11.0661 -18.5638 5.18706 -0.518459 26.8268 -23.5618 -21.6752 -45.5503 41.4876 138.024 -3.01082e-006 2.91496e-007 -4.04966e-006 -11.4942 14.1929 1.37704 2.72873e-006 9.25243e-007 -2.99999 8.02903 -4.95142 0.697661 11.2222 -21.9765 34.4426 50.0924 44.9912 -157.384 -8.94873e-008 2.60917e-008 3.65544e-006 20.7262 10.5183 -6.35504 4.99151e-006 1.48611e-006 3.00765 -8.02888 -4.95144 -0.697682 178.931 7.46954 -1.7864 180 7.01586e-015 179.109 178.759 4.64 179.922 -7.89379e-007 1.71256e-006 0.0319617 -18.5943 67.9156 19.4742 8.13649 25.2327 -3.48774 -171.396 6.13282 -2.00005 4.54188e-006 -4.6773e-006 -0.92967 -1.9766 -5.77838 0.0351286 1.49799e-006 -6.72004e-007 -0.087658 19.2361 68.8016 -20.2175 -8.13649 25.2327 3.48774 
53.7484 91.4453 6.99365 -2.5056 5.78457 -2.53566 -0.839638 -4.611 0.0284413 -1.67111 -5.2231 0.112701 -1.67048 -3.57844 0.14062 29.5854 22.3705 -11.0705 -18.5747 5.18502 -0.530969 26.8275 -23.5621 -21.6754 -45.5006 41.5381 138.018 -3.01082e-006 2.91496e-007 -4.04966e-006 -11.4931 14.1962 1.37731 2.72873e-006 9.25243e-007 -2.99999 8.02903 -4.95142 0.697661 11.167 -21.9613 34.3707 50.0877 45.0619 -157.331 -8.94873e-008 2.60917e-008 3.65544e-006 20.6729 10.4842 -6.3271 4.99151e-006 1.48611e-006 3.00766 -8.02888 -4.95144 -0.697682 178.946 7.43539 -1.79025 180 7.01586e-015 179.109 178.757 4.65103 179.921 -7.89379e-007 1.71256e-006 0.0319562 -18.5912 67.912 19.4709 8.13649 25.2327 -3.48774 -171.38 6.11722 -2.01191 4.54188e-006 -4.6773e-006 -0.930035 -1.97676 -5.80858 0.0355517 1.49799e-006 -6.72004e-007 -0.0883963 19.2428 68.8092 -20.2247 -8.13649 25.2327 3.48774 
53.7457 91.445 7.00128 -2.52058 5.74978 -2.51112 -0.836655 -4.6057 0.0286092 -1.66523 -5.21312 0.113037 -1.66461 -3.56846 0.140858 29.5723 22.377 -11.0789 -18.5969 5.17791 -0.545451 26.8304 -23.5614 -21.6738 -45.4434 41.5911 138.003 -3.01082e-006 2.91496e-007 -4.04966e-006 -11.491 14.1984 1.37722 2.72873e-006 9.25243e-007 -2.99999 8.02903 -4.95142 0.697661 11.11 -21.9455 34.2962 50.0755 45.1393 -157.272 -8.94873e-008 2.60917e-008 3.65544e-006 20.6168 10.4492 -6.29837 4.99151e-006 1.48611e-006 3.00766 -8.02888 -4.95144 -0.697682 178.962 7.40179 -1.79437 180 7.01586e-015 179.108 178.756 4.66235 179.921 -7.89379e-007 1.71256e-006 0.0319508 -18.588 67.9083 19.4676 8.13649 25.2327 -3.48774 -171.362 6.10267 -2.02437 4.54188e-006 -4.6773e-006 -0.930388 -1.97728 -5.84044 0.0359967 1.49799e-006 -6.72004e-007 -0.0891806 19.2499 68.8173 -20.2324 -8.13649 25.2327 3.48774 
53.7377 91.4436 7.00849 -2.53576 5.71512 -2.48721 -0.833526 -4.60036 0.0288548 -1.65907 -5.20311 0.113481 -1.65847 -3.55844 0.141197 29.5654 22.3845 -11.0904 -18.6278 5.1665 -0.561445 26.8355 -23.5594 -21.6703 -45.3785 41.6465 137.978 -3.01082e-006 2.91496e-007 -4.04966e-006 -11.4878 14.1989 1.3767 2.72873e-006 9.25243e-007 -2.99999 8.02903 -4.95142 0.697661 11.0513 -21.9289 34.2191 50.056 45.2233 -157.207 -8.94873e-008 2.60917e-008 3.65544e-006 20.5583 10.4132 -6.26888 4.99151e-006 1.48611e-006 3.00767 -8.02888 -4.95144 -0.697682 178.978 7.36872 -1.79873 180 7.01586e-015 179.107 178.755 4.67385 179.92 -7.89379e-007 1.71256e-006 0.0319454 -18.5848 67.9046 19.4642 8.13649 25.2327 -3.48774 -171.344 6.08893 -2.03728 4.54188e-006 -4.6773e-006 -0.930729 -1.97805 -5.87353 0.0364614 1.49799e-006 -6.72004e-007 -0.0899985 19.2574 68.8257 -20.2404 -8.13649 25.2327 3.48774 
53.7311 91.4428 7.00136 -2.55103 5.68065 -2.46402 -0.830283 -4.59503 0.0291552 -1.65269 -5.1931 0.113993 -1.65211 -3.54843 0.141602 29.5627 22.3931 -11.1039 -18.665 5.15153 -0.578489 26.8425 -23.5562 -21.6646 -45.3059 41.7043 137.945 -3.01082e-006 2.91496e-007 -4.04966e-006 -11.4834 14.197 1.37564 2.72873e-006 9.25243e-007 -2.99999 8.02903 -4.95142 0.697661 10.9912 -21.9117 34.1397 50.0296 45.3135 -157.136 -8.94873e-008 2.60917e-008 3.65544e-006 20.4974 10.3758 -6.23863 4.99151e-006 1.48611e-006 3.00767 -8.02888 -4.95144 -0.697682 178.995 7.33615 -1.80325 180 7.01586e-015 179.106 178.754 4.68542 179.92 -7.89379e-007 1.71256e-006 0.0319401 -18.5817 67.9008 19.4608 8.13649 25.2327 -3.48774 -171.326 6.07577 -2.05047 4.54188e-006 -4.6773e-006 -0.931063 -1.97898 -5.90741 0.0369433 1.49799e-006 -6.72004e-007 -0.0908375 19.265 68.8343 -20.2486 -8.13649 25.2327 3.48774 
